<svg
  version="1.1"
  viewBox="0 0 16 16"
  xmlns="http://www.w3.org/2000/svg"
>
  <path
    d="m6.8764 0.98119a1.5903 1.5896 0 0 1 2.2471 0l5.8987 5.8958c0.61961 0.62034 0.61961 1.6257 0 2.246l-5.8987 5.8958c-0.62064 0.61931-1.6265 0.61931-2.2471 0l-5.8987-5.8958a1.5903 1.5896 0 0 1 0-2.246zm0.77968 4.8678-1.8082 1.8073a0.48536 0.48512 0 0 0 0 0.68743l1.8082 1.8073a0.48536 0.48512 0 0 0 0.68777 0l1.8082-1.8073a0.48536 0.48512 0 0 0 0-0.68743l-1.8082-1.8073a0.48536 0.48512 0 0 0-0.68777 0z"
    fill="none"
    stroke="#000"
    stroke-linecap="round"
    stroke-width="1.0324"
  />
</svg>
